<?xml version="1.0" encoding="utf-8"?>
<!-- Generator: Adobe Illustrator 19.2.1, SVG Export Plug-In . SVG Version: 6.00 Build 0)  -->
<svg version="1.1" id="ui" xmlns="http://www.w3.org/2000/svg" xmlns:xlink="http://www.w3.org/1999/xlink" x="0px" y="0px"
	 viewBox="0 0 39.5 39.5" style="enable-background:new 0 0 39.5 39.5;" xml:space="preserve">
<path id="search" style="fill:white;" d="M38.6,33.4L29.2,24c1.4-2.3,2.2-5.1,2.2-8C31.4,7.4,24,0,15.5,0C6.9,0,0,6.9,0,15.5
	s7.4,15.9,15.9,15.9c2.8,0,5.5-0.8,7.8-2.1l9.5,9.5c0.9,0.9,2.4,0.9,3.4,0l2.4-2.4C39.9,35.5,39.5,34.3,38.6,33.4z M4.8,15.5
	c0-5.9,4.8-10.7,10.7-10.7c5.9,0,11.2,5.3,11.2,11.2c0,5.9-4.8,10.7-10.7,10.7C10,26.7,4.8,21.4,4.8,15.5z"/>
</svg>
